<svg width="25" height="32" viewBox="0 0 25 32" fill="none" xmlns="http://www.w3.org/2000/svg">
<path d="M18.4615 3.07692C18.4615 1.37758 19.8391 -2.97122e-07 21.5385 0C23.2378 2.97122e-07 24.6154 1.37759 24.6154 3.07692C24.6154 4.77626 23.2378 6.15385 21.5385 6.15385L18.4615 6.15385V3.07692Z" fill="#FF6E00"/>
<path fill-rule="evenodd" clip-rule="evenodd" d="M0 19.6923C2.97122e-07 26.4897 5.51034 32 12.3077 32C19.105 32 24.6154 26.4897 24.6154 19.6923V7.38461L12.3077 7.38461C5.51034 7.38461 -2.97122e-07 12.895 0 19.6923ZM7.38462 19.6923C7.38462 22.4112 9.58875 24.6154 12.3077 24.6154C15.0266 24.6154 17.2308 22.4112 17.2308 19.6923V14.7692H12.3077C9.58875 14.7692 7.38462 16.9734 7.38462 19.6923Z" fill="#FF6E00"/>
</svg>
